<svg width="375" height="193" viewBox="0 0 375 193" fill="none" xmlns="http://www.w3.org/2000/svg">
<g opacity="0.05">
<path d="M144.93 192.37C132.02 187.33 119.67 184.87 107.17 184.87C94.67 184.87 82.32 187.32 69.41 192.37L68.86 190.97C81.95 185.86 94.48 183.37 107.17 183.37C119.86 183.37 132.39 185.86 145.48 190.97L144.93 192.37Z" fill="#D4D4D4"/>
<path d="M472.37 192.33C456.53 183.67 437.16 174.81 413.56 174.81C389.96 174.81 370.59 183.66 354.75 192.33L354.03 191.01C370.03 182.26 389.62 173.31 413.56 173.31C437.5 173.31 457.09 182.26 473.09 191.01" fill="#D4D4D4"/>
<path d="M165.98 192.33C150.14 183.67 130.77 174.81 107.17 174.81C83.57 174.81 64.2 183.66 48.36 192.33L47.64 191.01C63.64 182.26 83.23 173.31 107.17 173.31C131.11 173.31 150.7 182.26 166.7 191.01L165.98 192.33Z" fill="#D4D4D4"/>
<path d="M489.78 192.32C466.92 178.77 443.27 164.75 413.56 164.75C383.85 164.75 360.21 178.76 337.35 192.32L336.59 191.03C359.63 177.38 383.45 163.26 413.57 163.26C443.69 163.26 467.51 177.38 490.55 191.03" fill="#D4D4D4"/>
<path d="M183.39 192.32C160.52 178.77 136.88 164.75 107.18 164.75C77.47 164.75 53.83 178.76 30.97 192.31L30.21 191.02C53.25 177.37 77.07 163.25 107.19 163.25C137.31 163.25 161.13 177.37 184.16 191.02L183.39 192.32Z" fill="#D4D4D4"/>
<path d="M489.78 182.26C466.91 168.71 443.27 154.69 413.56 154.69C383.85 154.69 360.21 168.7 337.35 182.26C331.67 185.63 325.79 189.11 319.9 192.33L319.18 191.01C325.04 187.8 330.91 184.32 336.59 180.96C359.63 167.3 383.45 153.18 413.57 153.18C443.69 153.18 467.51 167.3 490.55 180.96" fill="#D4D4D4"/>
<path d="M200.84 192.33C194.95 189.11 189.07 185.63 183.39 182.25C160.53 168.7 136.88 154.68 107.18 154.68C77.47 154.68 53.83 168.69 30.96 182.25C25.27 185.62 19.39 189.1 13.51 192.33L12.79 191.01C18.66 187.8 24.52 184.32 30.2 180.96C53.24 167.3 77.06 153.18 107.18 153.18C137.3 153.18 161.12 167.3 184.16 180.95C189.83 184.31 195.7 187.79 201.57 191L200.84 192.33Z" fill="#D4D4D4"/>
<path d="M489.78 172.2C466.91 158.65 443.27 144.63 413.56 144.63C383.85 144.63 360.21 158.64 337.35 172.19C325.02 179.5 312.26 187.06 298.68 192.37L298.13 190.97C311.6 185.71 324.3 178.18 336.59 170.9C359.63 157.24 383.45 143.13 413.57 143.13C443.69 143.13 467.51 157.25 490.55 170.91" fill="#D4D4D4"/>
<path d="M222.06 192.37C208.47 187.06 195.72 179.5 183.39 172.19C160.53 158.64 136.88 144.62 107.17 144.62C77.46 144.62 53.82 158.63 30.96 172.18C18.71 179.44 6.04 186.95 -7.45 192.25L-8 190.87C5.37 185.61 17.99 178.14 30.19 170.9C53.23 157.25 77.05 143.13 107.17 143.13C137.29 143.13 161.11 157.25 184.15 170.9C196.43 178.18 209.13 185.71 222.6 190.97L222.06 192.37Z" fill="#D4D4D4"/>
<path d="M260.37 189.91C230.25 189.91 206.43 175.79 183.39 162.14C160.53 148.59 136.88 134.57 107.18 134.57C77.47 134.57 53.83 148.58 30.97 162.13C18.72 169.39 6.05 176.9 -7.44 182.2L-8 180.81C5.37 175.55 17.99 168.08 30.19 160.84C53.23 147.19 77.05 133.07 107.17 133.07C137.29 133.07 161.11 147.19 184.15 160.84C207.01 174.39 230.66 188.41 260.36 188.41C290.06 188.41 313.71 174.4 336.57 160.84C359.61 147.19 383.43 133.07 413.55 133.07V134.57C383.84 134.57 360.2 148.58 337.34 162.14C314.31 175.79 290.48 189.91 260.37 189.91Z" fill="#D4D4D4"/>
<path d="M260.37 179.85C230.25 179.85 206.43 165.73 183.39 152.07C160.53 138.52 136.88 124.5 107.18 124.5C77.47 124.5 53.83 138.51 30.97 152.07C18.72 159.33 6.05 166.84 -7.44 172.14L-8 170.75C5.37 165.49 17.99 158.01 30.19 150.78C53.23 137.12 77.05 123 107.17 123C137.29 123 161.11 137.12 184.15 150.78C207.01 164.33 230.66 178.35 260.36 178.35C290.06 178.35 313.71 164.34 336.57 150.78C359.61 137.12 383.43 123 413.55 123V124.5C383.84 124.5 360.2 138.51 337.34 152.07C314.31 165.73 290.48 179.85 260.37 179.85Z" fill="#D4D4D4"/>
<path d="M260.37 169.79C230.25 169.79 206.43 155.67 183.39 142.02C160.53 128.47 136.88 114.45 107.18 114.45C77.47 114.45 53.83 128.46 30.97 142.01C18.72 149.27 6.05 156.78 -7.44 162.08L-8 160.69C5.37 155.43 17.99 147.96 30.19 140.72C53.23 127.07 77.05 112.95 107.17 112.95C137.29 112.95 161.11 127.07 184.15 140.72C207.01 154.27 230.66 168.29 260.36 168.29C290.06 168.29 313.71 154.28 336.57 140.72C359.61 127.07 383.43 112.95 413.55 112.95V114.45C383.84 114.45 360.2 128.46 337.34 142.02C314.31 155.67 290.48 169.79 260.37 169.79Z" fill="#D4D4D4"/>
<path d="M260.37 159.72C230.25 159.72 206.43 145.6 183.39 131.95C160.53 118.4 136.88 104.38 107.18 104.38C77.47 104.38 53.83 118.39 30.97 131.94C18.72 139.2 6.05 146.71 -7.44 152.01L-8 150.63C5.37 145.37 17.99 137.9 30.19 130.66C53.23 117.01 77.05 102.89 107.17 102.89C137.29 102.89 161.11 117.01 184.15 130.66C207.01 144.21 230.66 158.23 260.36 158.23C290.06 158.23 313.71 144.22 336.57 130.66C359.61 117.01 383.43 102.89 413.55 102.89V104.39C383.84 104.39 360.2 118.4 337.34 131.96C314.31 145.6 290.48 159.72 260.37 159.72Z" fill="#D4D4D4"/>
<path d="M260.37 149.66C230.25 149.66 206.43 135.54 183.39 121.89C160.53 108.34 136.88 94.3301 107.18 94.3301C77.47 94.3301 53.83 108.34 30.97 121.89C18.72 129.15 6.05 136.66 -7.44 141.96L-8 140.56C5.37 135.3 17.99 127.83 30.19 120.59C53.23 106.94 77.05 92.8201 107.17 92.8201C137.29 92.8201 161.11 106.94 184.15 120.59C207.01 134.14 230.66 148.15 260.36 148.15C290.06 148.15 313.71 134.14 336.57 120.59C359.61 106.93 383.43 92.8201 413.55 92.8201V94.3201C383.84 94.3201 360.2 108.33 337.34 121.88C314.31 135.54 290.48 149.66 260.37 149.66Z" fill="#D4D4D4"/>
<path d="M260.37 139.6C230.25 139.6 206.43 125.48 183.39 111.83C160.53 98.28 136.88 84.26 107.18 84.26C77.47 84.26 53.83 98.27 30.97 111.82C18.7 119.09 6.03 126.6 -7.45 131.9L-8 130.5C5.37 125.24 17.99 117.77 30.19 110.53C53.23 96.88 77.05 82.76 107.17 82.76C137.29 82.76 161.11 96.88 184.15 110.53C207.01 124.08 230.66 138.1 260.36 138.1C290.06 138.1 313.71 124.09 336.57 110.53C359.61 96.88 383.43 82.76 413.55 82.76V84.26C383.84 84.26 360.2 98.27 337.34 111.83C314.31 125.48 290.48 139.6 260.37 139.6Z" fill="#D4D4D4"/>
<path d="M260.37 129.54C230.25 129.54 206.43 115.42 183.39 101.77C160.53 88.22 136.88 74.21 107.18 74.21C77.47 74.21 53.83 88.22 30.97 101.77C18.72 109.03 6.05 116.54 -7.44 121.84L-8 120.44C5.37 115.18 17.99 107.71 30.19 100.47C53.23 86.82 77.05 72.7 107.17 72.7C137.29 72.7 161.11 86.82 184.15 100.47C207.01 114.02 230.66 128.03 260.36 128.03C290.06 128.03 313.71 114.02 336.57 100.47C359.61 86.81 383.43 72.7 413.55 72.7V74.2C383.84 74.2 360.2 88.2099 337.34 101.76C314.31 115.42 290.48 129.54 260.37 129.54Z" fill="#D4D4D4"/>
<path d="M260.37 119.48C230.25 119.48 206.43 105.36 183.39 91.71C160.53 78.16 136.88 64.14 107.18 64.14C77.47 64.14 53.83 78.15 30.97 91.7C18.72 98.96 6.05 106.47 -7.44 111.77L-8 110.38C5.37 105.12 17.99 97.65 30.19 90.41C53.23 76.76 77.05 62.64 107.17 62.64C137.29 62.64 161.11 76.76 184.15 90.41C207.01 103.96 230.66 117.98 260.36 117.98C290.06 117.98 313.71 103.97 336.57 90.41C359.61 76.76 383.43 62.64 413.55 62.64V64.14C383.84 64.14 360.2 78.15 337.34 91.71C314.31 105.36 290.48 119.48 260.37 119.48Z" fill="#D4D4D4"/>
<path d="M260.37 109.42C230.25 109.42 206.43 95.3001 183.39 81.6501C160.53 68.1001 136.88 54.0801 107.18 54.0801C77.47 54.0801 53.83 68.0901 30.97 81.6401C18.72 88.9001 6.05 96.4101 -7.44 101.71L-8 100.32C5.37 95.0601 17.99 87.5901 30.19 80.3501C53.23 66.7001 77.05 52.5801 107.17 52.5801C137.29 52.5801 161.11 66.7001 184.15 80.3501C207.01 93.9001 230.66 107.92 260.36 107.92C290.06 107.92 313.71 93.9101 336.57 80.3501C359.61 66.7001 383.43 52.5801 413.55 52.5801V54.0801C383.84 54.0801 360.2 68.0901 337.34 81.6501C314.31 95.3001 290.48 109.42 260.37 109.42Z" fill="#D4D4D4"/>
<path d="M260.37 99.35C230.25 99.35 206.43 85.23 183.39 71.58C160.53 58.03 136.88 44.02 107.18 44.02C77.47 44.02 53.83 58.03 30.97 71.58C18.72 78.84 6.05 86.35 -7.44 91.65L-8 90.26C5.37 85 17.99 77.52 30.19 70.29C53.23 56.64 77.05 42.52 107.17 42.52C137.29 42.52 161.11 56.64 184.15 70.29C207.01 83.84 230.66 97.85 260.36 97.85C290.06 97.85 313.71 83.84 336.57 70.29C359.61 56.63 383.43 42.52 413.55 42.52V44.02C383.84 44.02 360.2 58.03 337.34 71.58C314.31 85.23 290.48 99.35 260.37 99.35Z" fill="#D4D4D4"/>
<path d="M260.37 89.2899C230.25 89.2899 206.43 75.17 183.39 61.52C160.53 47.97 136.88 33.95 107.18 33.95C77.47 33.95 53.83 47.9599 30.97 61.5099C18.72 68.7699 6.05 76.28 -7.44 81.58L-8 80.19C5.37 74.93 17.99 67.45 30.19 60.22C53.23 46.57 77.05 32.45 107.17 32.45C137.29 32.45 161.11 46.57 184.15 60.22C207.01 73.77 230.66 87.7899 260.36 87.7899C290.06 87.7899 313.71 73.78 336.57 60.22C359.61 46.57 383.43 32.45 413.55 32.45V33.95C383.84 33.95 360.2 47.96 337.34 61.52C314.31 75.17 290.48 89.2899 260.37 89.2899Z" fill="#D4D4D4"/>
<path d="M260.37 79.23C230.25 79.23 206.43 65.11 183.39 51.46C160.53 37.91 136.88 23.9 107.18 23.9C77.47 23.9 53.83 37.91 30.97 51.46C18.72 58.72 6.05 66.23 -7.44 71.53L-8 70.13C5.37 64.87 17.99 57.4 30.19 50.16C53.23 36.51 77.05 22.39 107.17 22.39C137.29 22.39 161.11 36.51 184.15 50.16C207.01 63.71 230.66 77.72 260.36 77.72C290.06 77.72 313.71 63.71 336.57 50.16C359.61 36.51 383.43 22.39 413.55 22.39V23.89C383.84 23.89 360.2 37.9 337.34 51.45C314.31 65.11 290.48 79.23 260.37 79.23Z" fill="#D4D4D4"/>
<path d="M260.37 69.1701C230.25 69.1701 206.43 55.0501 183.39 41.4001C160.53 27.8501 136.88 13.8301 107.18 13.8301C77.47 13.8301 53.83 27.8401 30.97 41.3901C18.72 48.6501 6.05 56.1601 -7.44 61.4601L-8 60.0701C5.37 54.8101 17.99 47.3301 30.19 40.1001C53.23 26.4501 77.05 12.3301 107.17 12.3301C137.29 12.3301 161.11 26.4501 184.15 40.1001C207.01 53.6501 230.66 67.6701 260.36 67.6701C290.06 67.6701 313.71 53.6601 336.57 40.1001C359.61 26.4401 383.43 12.3301 413.55 12.3301V13.8301C383.84 13.8301 360.2 27.8401 337.34 41.4001C314.31 55.0501 290.48 69.1701 260.37 69.1701Z" fill="#D4D4D4"/>
<path d="M260.37 59.11C230.25 59.11 206.43 44.99 183.39 31.34C160.53 17.79 136.88 3.77002 107.18 3.77002C77.47 3.77002 53.83 17.78 30.97 31.34C18.7 38.59 6.03 46.1 -7.45 51.4L-8 50.01C5.37 44.75 17.99 37.28 30.19 30.04C53.23 16.39 77.05 2.27002 107.17 2.27002C137.29 2.27002 161.11 16.39 184.15 30.04C207.01 43.59 230.66 57.6 260.36 57.6C290.06 57.6 313.71 43.59 336.57 30.04C359.61 16.38 383.43 2.27002 413.55 2.27002V3.77002C383.84 3.77002 360.2 17.78 337.34 31.34C314.31 44.99 290.48 59.11 260.37 59.11Z" fill="#D4D4D4"/>
<path d="M260.37 49.04C230.25 49.04 206.43 34.92 183.39 21.27C160.53 7.71997 136.88 -6.29004 107.18 -6.29004C77.47 -6.29004 53.83 7.71997 30.97 21.27C18.72 28.53 6.05 36.04 -7.44 41.34L-8 39.95C5.37 34.69 17.99 27.22 30.19 19.98C53.23 6.31996 77.05 -7.79004 107.17 -7.79004C137.29 -7.79004 161.11 6.32996 184.15 19.98C207.01 33.53 230.66 47.55 260.36 47.55C290.06 47.55 313.71 33.54 336.57 19.98C359.61 6.31996 383.43 -7.79004 413.55 -7.79004V-6.29004C383.84 -6.29004 360.2 7.71997 337.34 21.27C314.31 34.93 290.48 49.04 260.37 49.04Z" fill="#D4D4D4"/>
<path d="M260.37 38.98C230.25 38.98 206.43 24.86 183.39 11.21C160.53 -2.33998 136.88 -16.35 107.18 -16.35C77.47 -16.35 53.83 -2.33998 30.97 11.21C18.72 18.47 6.05 25.98 -7.44 31.28L-8 29.88C5.37 24.62 17.99 17.15 30.19 9.91002C53.23 -3.73998 77.05 -17.86 107.17 -17.86C137.29 -17.86 161.11 -3.73998 184.15 9.91002C207.01 23.46 230.66 37.47 260.36 37.47C290.06 37.47 313.71 23.46 336.57 9.91002C359.61 -3.73998 383.43 -17.86 413.55 -17.86V-16.36C383.84 -16.36 360.2 -2.34999 337.34 11.2C314.31 24.86 290.48 38.98 260.37 38.98Z" fill="#D4D4D4"/>
<path d="M260.37 28.9201C230.25 28.9201 206.43 14.8001 183.39 1.15007C160.53 -12.3999 136.88 -26.4099 107.18 -26.4099C77.47 -26.4099 53.83 -12.3999 30.97 1.15007C18.72 8.41007 6.05 15.9201 -7.44 21.2201L-8 19.8201C5.37 14.5601 17.99 7.08008 30.19 -0.149918C53.23 -13.7999 77.05 -27.9199 107.17 -27.9199C137.29 -27.9199 161.11 -13.7999 184.15 -0.149918C207.01 13.4001 230.66 27.4101 260.36 27.4101C290.06 27.4101 313.71 13.4001 336.57 -0.149918C359.61 -13.8099 383.43 -27.9199 413.55 -27.9199V-26.4199C383.84 -26.4199 360.2 -12.4099 337.34 1.14008C314.31 14.8001 290.48 28.9201 260.37 28.9201Z" fill="#D4D4D4"/>
<path d="M260.37 18.86C230.25 18.86 206.43 4.74002 183.39 -8.90998C160.53 -22.46 136.88 -36.47 107.18 -36.47C77.47 -36.47 53.83 -22.46 30.97 -8.90998C18.72 -1.64998 6.05 5.86003 -7.44 11.16L-8 9.76002C5.37 4.50002 17.99 -2.96998 30.19 -10.21C53.23 -23.86 77.05 -37.98 107.17 -37.98C137.29 -37.98 161.11 -23.86 184.15 -10.21C207.01 3.34002 230.66 17.35 260.36 17.35C290.06 17.35 313.71 3.34002 336.57 -10.21C359.61 -23.87 383.43 -37.98 413.55 -37.98V-36.48C383.84 -36.48 360.2 -22.47 337.34 -8.91998C314.31 4.74002 290.48 18.86 260.37 18.86Z" fill="#D4D4D4"/>
<path d="M260.37 8.79996C230.25 8.79996 206.43 -5.32004 183.39 -18.97C160.53 -32.52 136.88 -46.53 107.18 -46.53C77.47 -46.53 53.83 -32.52 30.97 -18.97C18.72 -11.71 6.05 -4.20003 -7.44 1.09997L-8 -0.300041C5.37 -5.56004 17.99 -13.03 30.19 -20.27C53.23 -33.92 77.05 -48.04 107.17 -48.04C137.29 -48.04 161.11 -33.92 184.15 -20.27C207.01 -6.72003 230.66 7.29996 260.36 7.29996C290.06 7.29996 313.71 -6.71003 336.57 -20.27C359.61 -33.93 383.43 -48.04 413.55 -48.04V-46.54C383.84 -46.54 360.2 -32.53 337.34 -18.98C314.31 -5.32004 290.48 8.79996 260.37 8.79996Z" fill="#D4D4D4"/>
</g>
</svg>
