<svg width="158" height="220" viewBox="0 0 158 220" fill="none" xmlns="http://www.w3.org/2000/svg">
<g opacity="0.3">
<path d="M141.486 187.324C140.943 187.551 140.35 187.631 139.766 187.557L48.5805 177.763C48.3074 177.735 48.0386 177.675 47.7802 177.582C47.3968 177.456 47.0442 177.25 46.7452 176.979C46.4461 176.707 46.2073 176.376 46.0441 176.007L34.3466 147.502C34.1565 147.005 34.0967 146.467 34.1728 145.94C34.2489 145.413 34.4584 144.914 34.7815 144.491C35.1421 144.024 35.6192 143.661 36.1648 143.437C36.7105 143.213 37.3054 143.137 37.8899 143.215L127.276 152.696L184.222 83.1281C184.583 82.6614 185.06 82.2978 185.606 82.0739C186.151 81.85 186.746 81.7736 187.331 81.8525C187.858 81.9269 188.358 82.1347 188.782 82.4563C189.207 82.778 189.542 83.2028 189.756 83.6903L201.466 112.226C201.625 112.606 201.701 113.016 201.689 113.429C201.676 113.841 201.576 114.246 201.394 114.616C201.275 114.864 201.126 115.095 200.951 115.306L142.931 186.331C142.546 186.784 142.047 187.126 141.486 187.324ZM51.4111 171.916L138.935 181.107L194.772 113.084L185.741 91.0763L131.164 157.746C130.804 158.213 130.327 158.577 129.781 158.801C129.235 159.024 128.64 159.101 128.056 159.022L42.3797 149.908L51.4111 171.916Z" fill="white"/>
<path d="M124.903 146.914C124.375 147.14 123.798 147.227 123.227 147.166L32.0412 137.371C31.4881 137.347 30.9531 137.168 30.4969 136.854C30.0407 136.54 29.6818 136.105 29.4609 135.597L17.7507 107.062C17.5404 106.551 17.4773 105.992 17.5684 105.448C17.6595 104.903 17.9011 104.395 18.2661 103.981C18.6266 103.514 19.1037 103.151 19.6494 102.927C20.195 102.703 20.79 102.627 21.3745 102.705L110.693 112.286L117.913 103.33C118.274 102.863 118.751 102.5 119.296 102.276C119.842 102.052 120.437 101.976 121.022 102.055L153.298 105.48C153.845 105.532 154.367 105.73 154.812 106.052C155.257 106.373 155.608 106.808 155.829 107.31C156.032 107.822 156.091 108.379 156 108.922C155.909 109.465 155.672 109.973 155.314 110.391L126.291 145.872C125.928 146.335 125.449 146.694 124.903 146.914ZM34.8152 131.475L122.352 140.697L146.702 110.911L121.826 108.262L114.592 117.187C114.219 117.639 113.74 117.992 113.198 118.214C112.656 118.437 112.067 118.522 111.484 118.462L25.7838 109.467L34.8152 131.475Z" fill="white"/>
<path d="M70.6806 152.495C70.1949 152.674 69.6745 152.738 69.1598 152.683L36.8647 149.302C36.3199 149.259 35.7979 149.065 35.3565 148.743C34.9151 148.421 34.5716 147.983 34.3641 147.477C34.1567 146.972 34.0934 146.418 34.1812 145.879C34.2691 145.34 34.5047 144.835 34.8619 144.422L43.3234 133.976C43.6839 133.509 44.161 133.146 44.7067 132.922C45.2523 132.698 45.8473 132.622 46.4318 132.701L78.6775 136.138C79.2239 136.191 79.7464 136.389 80.1912 136.71C80.636 137.032 80.9871 137.466 81.2084 137.969C81.411 138.481 81.4701 139.038 81.3793 139.581C81.2885 140.124 81.0512 140.632 80.693 141.05L72.0507 151.497C71.6868 151.941 71.2151 152.285 70.6806 152.495ZM43.3483 143.772L68.1931 146.433L72.0569 141.688L47.212 139.027L43.3483 143.772Z" fill="white"/>
<path d="M167.415 112.798C166.887 113.023 166.31 113.11 165.739 113.05L108.511 106.97L101.278 115.895C100.917 116.362 100.44 116.726 99.8948 116.949C99.3491 117.173 98.7541 117.25 98.1696 117.171L65.8928 113.746C65.3443 113.7 64.8187 113.505 64.3727 113.183C63.9267 112.86 63.5772 112.422 63.3619 111.915C63.1666 111.402 63.1113 110.846 63.2019 110.305C63.2925 109.764 63.5256 109.256 63.8773 108.835L92.8998 73.3533C93.273 72.9013 93.7519 72.5484 94.2941 72.3259C94.8364 72.1034 95.4252 72.0181 96.0082 72.0777L187.194 81.8725C187.739 81.9213 188.261 82.1191 188.702 82.4442C189.143 82.7692 189.486 83.2091 189.694 83.7158C189.896 84.2233 189.954 84.777 189.86 85.3153C189.767 85.8536 189.527 86.3556 189.166 86.7655L168.63 111.863C168.302 112.264 167.887 112.584 167.415 112.798ZM106.011 100.878C106.539 100.652 107.116 100.565 107.687 100.626L164.928 106.736L180.71 87.4024L96.8394 78.5283L72.4386 108.19L97.3783 110.994L104.612 102.07C104.958 101.55 105.443 101.137 106.011 100.878Z" fill="white"/>
<path d="M150.832 72.3877C150.296 72.5982 149.716 72.6741 149.143 72.6087L91.9154 66.5296L55.4548 111.056C55.0943 111.523 54.6172 111.886 54.0715 112.11C53.5259 112.334 52.9309 112.41 52.3464 112.332L20.2688 108.861C19.7238 108.823 19.2 108.635 18.7555 108.317C18.311 108 17.9632 107.565 17.7507 107.062C17.5427 106.555 17.4779 106.001 17.5633 105.46C17.6487 104.919 17.8811 104.412 18.235 103.994L76.2545 32.969C76.6276 32.517 77.1066 32.1641 77.6488 31.9416C78.191 31.7191 78.7798 31.6338 79.3629 31.6934L170.549 41.4882C171.094 41.537 171.616 41.7348 172.056 42.0598C172.497 42.3849 172.84 42.8248 173.048 43.3315C173.251 43.839 173.308 44.3927 173.215 44.931C173.122 45.4693 172.881 45.9713 172.52 46.3812L152.034 71.4223C151.714 71.8329 151.302 72.1634 150.832 72.3877ZM89.4152 60.4371C89.9432 60.2112 90.5203 60.1244 91.0914 60.185L148.332 66.2952L164.127 46.9926L80.2563 38.1185L26.8983 103.598L51.6994 106.241L88.0452 61.4351C88.409 60.9908 88.8807 60.6472 89.4152 60.4371Z" fill="white"/>
<path d="M174.511 86.2785C173.983 86.5043 173.405 86.5911 172.834 86.5305L140.589 83.0928C140.04 83.0469 139.515 82.8522 139.069 82.5296C138.623 82.207 138.273 81.7688 138.058 81.2622C137.862 80.7492 137.807 80.1934 137.898 79.6519C137.988 79.1105 138.221 78.603 138.573 78.1815L167.596 42.7002C167.956 42.2335 168.433 41.8699 168.979 41.646C169.525 41.4221 170.12 41.3457 170.704 41.4246C171.255 41.4631 171.784 41.6549 172.231 41.9785C172.678 42.302 173.026 42.7443 173.235 43.2552L184.945 71.7907C185.147 72.2982 185.205 72.8518 185.112 73.3901C185.019 73.9285 184.778 74.4304 184.417 74.8403L175.881 85.2804C175.517 85.7247 175.045 86.0683 174.511 86.2785ZM147.259 77.4864L172.074 80.3413L178.24 72.7989L169.145 50.6357L147.259 77.4864Z" fill="white"/>
</g>
</svg>
