<svg width="83" height="153" viewBox="0 0 83 153" fill="none" xmlns="http://www.w3.org/2000/svg">
<g opacity="0.3">
<path d="M-18.0591 128.014C-18.4242 127.848 -18.7392 127.588 -18.9724 127.261L-56.279 77.0737C-56.3919 76.9245 -56.486 76.7619 -56.5593 76.5897C-56.6734 76.3391 -56.7336 76.0673 -56.7362 75.792C-56.7387 75.5166 -56.6835 75.2438 -56.5742 74.9911L-47.7178 55.9397C-47.5568 55.6142 -47.3152 55.3353 -47.0161 55.1295C-46.717 54.9236 -46.3703 54.7976 -46.0088 54.7634C-45.6082 54.7279 -45.2053 54.7984 -44.8406 54.968C-44.4759 55.1375 -44.1623 55.4 -43.9312 55.7292L-7.30015 104.87L53.8911 101.178C54.2917 101.143 54.6946 101.213 55.0593 101.383C55.424 101.552 55.7377 101.815 55.9687 102.144C56.1756 102.442 56.3028 102.789 56.3382 103.15C56.3736 103.511 56.3161 103.876 56.1711 104.209L47.3051 123.281C47.1883 123.537 47.0181 123.765 46.8059 123.949C46.5937 124.134 46.3444 124.271 46.0748 124.351C45.8959 124.406 45.711 124.439 45.5241 124.449L-16.8933 128.278C-17.2984 128.295 -17.7007 128.204 -18.0591 128.014ZM-52.0414 75.7844L-16.1275 123.859L43.7768 120.327L50.6146 105.618L-8.02877 109.155C-8.42936 109.191 -8.83226 109.12 -9.19695 108.95C-9.56164 108.781 -9.87529 108.518 -10.1063 108.189L-45.2036 61.0751L-52.0414 75.7844Z" fill="white"/>
<path d="M-5.50385 101.006C-5.86136 100.846 -6.17196 100.597 -6.40597 100.283L-43.7126 50.0957C-43.9564 49.8074 -44.1143 49.4566 -44.1684 49.083C-44.2226 48.7094 -44.1708 48.3282 -44.0189 47.9826L-35.1529 28.9104C-34.9946 28.5688 -34.744 28.2784 -34.4292 28.072C-34.1144 27.8655 -33.7482 27.7513 -33.3719 27.7423C-32.9713 27.7068 -32.5684 27.7773 -32.2037 27.9469C-31.839 28.1164 -31.5254 28.3789 -31.2943 28.7081L5.25513 77.8617L13.0815 77.331C13.4821 77.2955 13.8849 77.3661 14.2496 77.5356C14.6143 77.7051 14.928 77.9677 15.159 78.2968L28.3855 96.0422C28.6119 96.3403 28.7549 96.6933 28.7997 97.0649C28.8446 97.4365 28.7896 97.8134 28.6405 98.1568C28.4781 98.4951 28.2264 98.7827 27.9125 98.9885C27.5987 99.1944 27.2346 99.3106 26.8595 99.3248L-4.3395 101.219C-4.73956 101.251 -5.14107 101.178 -5.50385 101.006ZM-39.4765 48.7551L-3.57225 96.8508L22.6126 95.2535L12.4234 81.5729L4.6067 82.0827C4.20767 82.1051 3.80927 82.0287 3.44686 81.8602C3.08444 81.6918 2.76921 81.4365 2.52911 81.1169L-32.6387 34.0458L-39.4765 48.7551Z" fill="white"/>
<path d="M31.2565 106.498C30.899 106.338 30.5884 106.089 30.3544 105.775L6.9068 74.309L-0.909863 74.8188C-1.31046 74.8544 -1.71336 74.7838 -2.07805 74.6143C-2.44274 74.4448 -2.75638 74.1822 -2.98745 73.8531L-16.2139 56.1077C-16.4448 55.8118 -16.5906 55.4585 -16.6356 55.0859C-16.6805 54.7132 -16.6229 54.3354 -16.4689 53.9931C-16.3025 53.6578 -16.0498 53.3729 -15.7368 53.1676C-15.4238 52.9623 -15.0618 52.8441 -14.688 52.8251L16.5111 50.9311C16.9101 50.9087 17.3085 50.9851 17.6709 51.1536C18.0334 51.3221 18.3486 51.5774 18.5887 51.8969L55.8954 102.085C56.1234 102.38 56.2659 102.733 56.3072 103.104C56.3485 103.475 56.2871 103.851 56.1296 104.19C55.9692 104.526 55.7187 104.811 55.406 105.013C55.0934 105.216 54.7307 105.328 54.3583 105.337L32.2866 106.673C31.9343 106.695 31.5818 106.635 31.2565 106.498ZM8.79976 70.2369C9.15728 70.3967 9.46787 70.6455 9.70188 70.9595L33.1398 102.446L50.1254 101.398L15.7438 55.2991L-10.4024 56.8133L-0.26143 70.5978L7.55523 70.0879C7.97586 70.0209 8.40684 70.0725 8.79976 70.2369Z" fill="white"/>
<path d="M43.8118 79.489C43.4581 79.3178 43.1517 79.0626 42.9194 78.7456L19.4718 47.2795L-19.699 49.6365C-20.0996 49.672 -20.5025 49.6015 -20.8672 49.432C-21.2319 49.2624 -21.5455 48.9999 -21.7766 48.6707L-34.8881 31.004C-35.1213 30.7136 -35.2695 30.3642 -35.3163 29.9946C-35.363 29.625 -35.3064 29.2497 -35.1528 28.9103C-34.9954 28.5716 -34.748 28.2827 -34.4376 28.075C-34.1271 27.8673 -33.7657 27.7489 -33.3926 27.7326L29.0249 23.9031C29.4239 23.8807 29.8223 23.9571 30.1847 24.1256C30.5471 24.2941 30.8623 24.5494 31.1024 24.8689L68.4091 75.0566C68.6372 75.3524 68.7796 75.7051 68.8209 76.0763C68.8623 76.4475 68.8008 76.8229 68.6434 77.1615C68.4829 77.4977 68.2325 77.7829 67.9198 77.9854C67.6071 78.188 67.2445 78.2999 66.872 78.3088L44.8515 79.6438C44.4977 79.6735 44.1417 79.6205 43.8118 79.489ZM21.3647 43.2075C21.7222 43.3673 22.0328 43.616 22.2668 43.93L45.7048 75.4169L62.6807 74.3897L28.2992 28.2904L-29.1843 31.887L-19.0269 45.5275L20.2308 42.9835C20.6217 42.96 21.0121 43.0371 21.3647 43.2075Z" fill="white"/>
<path d="M47.8182 97.7741C47.4607 97.6143 47.1501 97.3655 46.9161 97.0515L33.7104 79.3158C33.4794 79.0199 33.3336 78.6666 33.2887 78.294C33.2438 77.9214 33.3014 77.5436 33.4553 77.2013C33.6217 76.866 33.8744 76.581 34.1874 76.3757C34.5005 76.1704 34.8625 76.0522 35.2363 76.0332L66.4354 74.1393C66.836 74.1037 67.2389 74.1743 67.6036 74.3438C67.9682 74.5133 68.2819 74.7759 68.513 75.105C68.7486 75.3986 68.8974 75.7522 68.9425 76.1259C68.9876 76.4996 68.9271 76.8785 68.768 77.2196L59.902 96.2918C59.7415 96.628 59.4911 96.9132 59.1784 97.1157C58.8657 97.3182 58.5031 97.4302 58.1306 97.4391L48.9521 97.998C48.5612 98.0215 48.1708 97.9444 47.8182 97.7741ZM39.605 80.06L49.6628 93.8059L56.2935 93.4016L63.1796 78.5884L39.605 80.06Z" fill="white"/>
</g>
</svg>
