<svg width="49" height="49" viewBox="0 0 49 49" fill="none" xmlns="http://www.w3.org/2000/svg">
<path d="M41.8285 7.17141C32.2607 -2.39047 16.7262 -2.39047 7.1584 7.17141C-0.467619 14.7927 -1.98576 26.154 2.53336 35.2925L1.40358 44.3604C1.19175 46.2305 2.74519 47.7829 4.61639 47.5712L13.6546 46.4774C22.7988 50.9938 34.2025 49.4413 41.7932 41.8553C51.3964 32.2581 51.3964 16.7333 41.8285 7.17141Z" fill="white"/>
<path d="M41.8285 7.17141C32.2607 -2.39047 16.7262 -2.39047 7.1584 7.17141C-0.467619 14.7927 -1.98576 26.154 2.53336 35.2925L1.40358 44.3604C1.19175 46.2305 2.74519 47.7829 4.61639 47.5712L13.6546 46.4774C22.7988 50.9938 34.2025 49.4413 41.7932 41.8553C51.3964 32.2581 51.3964 16.7333 41.8285 7.17141Z" fill="white"/>
<path d="M25.6435 21.9088V16.4302C26.7614 16.6149 27.8205 17.1073 28.703 17.846C28.8795 17.9691 29.1149 18.0307 29.2914 18.0307C29.9974 18.0307 30.527 17.4151 30.5858 16.738C30.5858 16.4302 30.4681 16.1224 30.2328 15.8762C28.9384 14.7066 27.2909 14.0294 25.5846 13.9063V12.0596C25.5846 11.5671 25.1728 11.1362 24.7021 11.1362C24.7021 11.1362 24.7021 11.1362 24.6432 11.1362C24.1137 11.1362 23.7018 11.5671 23.7018 12.0596V13.8448C20.3481 14.091 18.1123 16.2455 18.1123 19.0772C18.1123 22.586 20.9365 23.5709 23.7018 24.3096V30.4654C22.2309 30.2807 20.8777 29.6651 19.7597 28.6802C19.5244 28.4955 19.289 28.434 18.9949 28.3724C18.2888 28.434 17.8181 28.988 17.8181 29.7267C17.8181 30.0345 17.9358 30.3423 18.1711 30.5885C19.7009 32.0043 21.6425 32.8661 23.7018 32.9277V34.6513C23.7018 34.6513 23.7018 34.6513 23.7018 34.7129C23.7018 35.2669 24.1725 35.6362 24.6432 35.6362C25.1139 35.6362 25.5258 35.2053 25.5258 34.7129V32.9892C29.5856 32.6815 31.1742 30.1576 31.1742 27.449C31.3507 23.7556 28.4088 22.6475 25.6435 21.9088ZM23.8195 21.4164C22.2309 20.9239 20.9365 20.4315 20.9365 18.9541C20.9365 17.5382 22.0544 16.4918 23.8195 16.3686V21.4164ZM25.6435 30.5885V24.9867C27.2909 25.4792 28.5853 26.1563 28.5853 27.7568C28.6442 28.9264 27.8793 30.3423 25.6435 30.5885Z" fill="#100D40"/>
</svg>
