<svg width="282" height="222" viewBox="0 0 282 222" fill="none" xmlns="http://www.w3.org/2000/svg">
<path d="M181.858 131.818L210.712 105.781C214.786 102.099 220.811 101.836 225.14 105.168C230.231 109.113 231.335 116.564 227.431 121.824C218.011 134.711 200.528 157.679 185.422 172.758C182.113 176.001 177.869 177.93 173.371 178.368L109.86 184.976" fill="#FEC478"/>
<path d="M157.643 143.274H77.8268L98.5039 189.492L169.789 159.451L173.838 153.673L171.525 146.163L166.319 143.274H157.643Z" fill="#FEC478" stroke="#FEC478" stroke-width="3"/>
<path d="M81.4585 145.489C81.4585 145.489 89.1916 122.823 108.181 122.189C120.725 121.826 128.63 125.181 132.497 127.538C134.903 128.988 137.738 129.623 140.574 129.623H174.513C180.614 129.623 185.598 134.881 185.598 141.319C185.598 147.665 180.872 152.833 174.857 153.014L136.793 154.374" fill="#FEC478"/>
<path d="M81.4585 145.489C81.4585 145.489 89.1916 122.823 108.181 122.189C120.725 121.826 128.63 125.181 132.497 127.538C134.903 128.988 137.738 129.623 140.574 129.623H174.513C180.614 129.623 185.598 134.881 185.598 141.319C185.598 147.665 180.872 152.833 174.857 153.014L136.793 154.374" stroke="#FEB756" stroke-width="3" stroke-miterlimit="10" stroke-linecap="round" stroke-linejoin="round"/>
<path d="M109.543 197.986L95.4426 208.76C94.6592 209.383 93.6147 209.205 93.0054 208.404L50.2676 150.084C49.6583 149.283 49.8324 148.214 50.6158 147.591L64.7166 136.818C68.5465 133.879 74.0302 134.681 76.9026 138.598L111.284 185.521C114.157 189.528 113.373 195.048 109.543 197.986Z" fill="#100D40" stroke="#100D40" stroke-width="3" stroke-miterlimit="10" stroke-linecap="round" stroke-linejoin="round"/>
<path d="M171.921 26.2449C158.253 12.585 136.061 12.585 122.392 26.2449C111.498 37.1324 109.329 53.3629 115.785 66.4179L114.171 79.372C113.869 82.0435 116.088 84.2613 118.761 83.9589L131.673 82.3964C144.736 88.8482 161.027 86.6304 171.871 75.7933C185.59 62.083 185.59 39.9047 171.921 26.2449Z" fill="#100D40"/>
<path d="M171.921 26.2449C158.253 12.585 136.061 12.585 122.392 26.2449C111.498 37.1324 109.329 53.3629 115.785 66.4179L114.171 79.372C113.869 82.0435 116.088 84.2613 118.761 83.9589L131.673 82.3964C144.736 88.8482 161.027 86.6304 171.871 75.7933C185.59 62.083 185.59 39.9047 171.921 26.2449Z" fill="#100D40"/>
<path d="M148.8 47.2984V39.4717C150.397 39.7356 151.91 40.4391 153.17 41.4944C153.423 41.6702 153.759 41.7582 154.011 41.7582C155.02 41.7582 155.776 40.8788 155.86 39.9114C155.86 39.4717 155.692 39.0321 155.356 38.6803C153.507 37.0094 151.153 36.0421 148.716 35.8662V33.228C148.716 32.5245 148.127 31.9089 147.455 31.9089C147.455 31.9089 147.455 31.9089 147.371 31.9089C146.614 31.9089 146.026 32.5245 146.026 33.228V35.7783C141.235 36.13 138.041 39.2079 138.041 43.2532C138.041 48.2657 142.075 49.6728 146.026 50.728V59.522C143.925 59.2582 141.991 58.3788 140.394 56.9718C140.058 56.7079 139.722 56.62 139.302 56.5321C138.293 56.62 137.621 57.4114 137.621 58.4667C137.621 58.9064 137.789 59.3461 138.125 59.6979C140.31 61.7205 143.084 62.9517 146.026 63.0396V65.5019C146.026 65.5019 146.026 65.5019 146.026 65.5898C146.026 66.3813 146.698 66.9089 147.371 66.9089C148.043 66.9089 148.632 66.2934 148.632 65.5898V63.1275C154.431 62.6878 156.701 59.0823 156.701 55.213C156.953 49.9366 152.75 48.3537 148.8 47.2984ZM146.194 46.5949C143.925 45.8913 142.075 45.1878 142.075 43.0773C142.075 41.0547 143.672 39.5597 146.194 39.3838V46.5949ZM148.8 59.6979V51.6954C151.153 52.3989 153.002 53.3662 153.002 55.6527C153.086 57.3235 151.994 59.3461 148.8 59.6979Z" fill="white"/>
<ellipse cx="6.36225" cy="138.075" rx="6.36225" ry="6.35492" fill="#AA80F5"/>
<ellipse cx="184.505" cy="215.645" rx="6.36225" ry="6.35492" fill="#C9BBF8"/>
<ellipse cx="255.068" cy="6.35492" rx="6.36225" ry="6.35492" fill="#AA80F5"/>
<ellipse cx="44.5357" cy="35.2412" rx="6.36225" ry="6.35492" fill="#C9BBF8"/>
<ellipse cx="275.638" cy="161.901" rx="6.36225" ry="6.35492" fill="#8673EF"/>
</svg>
