<svg width="244" height="220" viewBox="0 0 244 220" fill="none" xmlns="http://www.w3.org/2000/svg">
<rect x="85.8033" y="47.2793" width="23.1916" height="99.7241" rx="11.5958" fill="#FEC478"/>
<rect x="108.995" y="83.2263" width="23.1916" height="63.777" rx="11.5958" fill="#FEC478"/>
<rect x="132.187" y="87.8647" width="23.1916" height="59.1387" rx="11.5958" fill="#FEB756"/>
<rect x="155.378" y="98.301" width="23.1916" height="48.7025" rx="11.5958" fill="#FEB756"/>
<rect x="45.2179" y="115.151" width="25.5108" height="84.4851" rx="12.7554" transform="rotate(-41.3379 45.2179 115.151)" fill="#FEC478"/>
<path d="M85.8033 116.854H132.187V178.312H114.898C98.8295 178.312 85.8033 165.286 85.8033 149.217V116.854Z" fill="#FEC478"/>
<path d="M132.187 116.854H178.57V149.217C178.57 165.286 165.544 178.312 149.475 178.312H132.187V116.854Z" fill="#FEB756"/>
<path d="M100.878 160.918H133.346V206.142H113.001C106.305 206.142 100.878 200.714 100.878 194.019V160.918Z" fill="#FEC478"/>
<path d="M132.766 160.918H165.814V194.019C165.814 200.714 160.387 206.142 153.692 206.142H132.766V160.918Z" fill="#FEB756"/>
<rect x="117.214" y="46.2666" width="23.2188" height="9.49859" rx="4.7493" fill="#9778F1"/>
<rect x="54.4172" y="45.2112" width="23.2188" height="9.49859" rx="4.7493" fill="#9778F1"/>
<rect x="92.4116" y="34.1294" width="23.2188" height="10.0263" rx="5.01315" transform="rotate(-90 92.4116 34.1294)" fill="#9778F1"/>
<rect x="79.9796" y="40.9509" width="23.3961" height="9.63369" rx="4.81684" transform="rotate(-136.246 79.9796 40.9509)" fill="#B68DFF"/>
<rect width="23.3961" height="9.63369" rx="4.81684" transform="matrix(0.72232 -0.691559 -0.691559 -0.72232 114.065 40.9302)" fill="#B68DFF"/>
<circle cx="238.5" cy="100.5" r="5.5" transform="rotate(-180 238.5 100.5)" fill="#AA80F5"/>
<circle cx="185.5" cy="23.5" r="5.5" transform="rotate(-180 185.5 23.5)" fill="#AA80F5"/>
<circle cx="23.5" cy="214.5" r="5.5" transform="rotate(-180 23.5 214.5)" fill="#9377F0"/>
<circle cx="205.5" cy="189.5" r="5.5" transform="rotate(-180 205.5 189.5)" fill="#C9BBF8"/>
<circle cx="5.71838" cy="79.8792" r="5.5" transform="rotate(-180 5.71838 79.8792)" fill="#D0C3F9"/>
</svg>
