<svg width="252" height="227" viewBox="0 0 252 227" fill="none" xmlns="http://www.w3.org/2000/svg">
<circle cx="246.5" cy="70.5" r="5.5" transform="rotate(-180 246.5 70.5)" fill="#AA80F5"/>
<circle cx="23.2817" cy="216.5" r="5.5" transform="rotate(-180 23.2817 216.5)" fill="#9377F0"/>
<circle cx="219.5" cy="182.5" r="5.5" transform="rotate(-180 219.5 182.5)" fill="#C9BBF8"/>
<circle cx="5.50012" cy="81.8792" r="5.5" transform="rotate(-180 5.50012 81.8792)" fill="#8673EF"/>
<circle cx="53.5" cy="5.5" r="5.5" transform="rotate(-180 53.5 5.5)" fill="#C9BBF8"/>
<rect x="119.801" y="107" width="78" height="98.4" fill="#F6F9F9"/>
<path fill-rule="evenodd" clip-rule="evenodd" d="M119.8 48.2002L197.801 107H119.8V48.2002Z" fill="#F6F9F9"/>
<rect width="78" height="98.4" transform="matrix(-1 0 0 1 119.8 107)" fill="white"/>
<path fill-rule="evenodd" clip-rule="evenodd" d="M119.8 48.2002L41.8 107H119.8V48.2002Z" fill="white"/>
<path fill-rule="evenodd" clip-rule="evenodd" d="M120.231 68.4429H92.6628L84.9772 176.542H120.231H155.484L147.798 68.4429H120.231Z" fill="#100D40"/>
<path d="M116.336 25.4115L71.1912 72.4774C68.2642 75.5289 70.4269 80.6001 74.6552 80.6001H164.945C169.173 80.6001 171.336 75.5289 168.409 72.4774L123.264 25.4115C121.375 23.4418 118.225 23.4418 116.336 25.4115Z" fill="#100D40"/>
<path d="M126.102 124.898C126.102 125.858 125.862 126.76 125.382 127.605C124.921 128.45 124.23 129.16 123.308 129.736C122.406 130.312 121.33 130.658 120.082 130.773V133.106H118.21V130.773C116.406 130.6 114.946 130.034 113.833 129.074C112.719 128.114 112.162 126.847 112.162 125.272H115.676C115.734 126.021 115.974 126.645 116.396 127.144C116.818 127.624 117.423 127.932 118.21 128.066V121.73C116.924 121.404 115.878 121.077 115.071 120.751C114.265 120.405 113.574 119.868 112.998 119.138C112.441 118.408 112.162 117.41 112.162 116.143C112.162 114.549 112.719 113.234 113.833 112.197C114.946 111.141 116.406 110.527 118.21 110.354V108.021H120.082V110.354C121.772 110.508 123.126 111.045 124.143 111.967C125.18 112.869 125.766 114.117 125.9 115.711H122.386C122.329 115.116 122.098 114.588 121.695 114.127C121.292 113.647 120.754 113.32 120.082 113.148V119.368C121.369 119.676 122.415 120.002 123.222 120.348C124.028 120.674 124.71 121.202 125.266 121.932C125.823 122.642 126.102 123.631 126.102 124.898ZM115.503 115.97C115.503 116.757 115.734 117.372 116.194 117.813C116.674 118.255 117.346 118.61 118.21 118.879V113.061C117.385 113.157 116.722 113.455 116.223 113.954C115.743 114.453 115.503 115.125 115.503 115.97ZM120.082 128.066C120.927 127.932 121.59 127.596 122.07 127.058C122.55 126.501 122.79 125.839 122.79 125.071C122.79 124.303 122.55 123.708 122.07 123.285C121.609 122.844 120.946 122.488 120.082 122.22V128.066Z" fill="#F6F9F9"/>
<path d="M130.6 155.974L197.8 107V205.4L130.6 155.974Z" fill="#FFBC42"/>
<path d="M109 155.974L41.7999 107V205.4L109 155.974Z" fill="#FCCF7D"/>
<path d="M41.8 205.4H119.8V215H46.6001C43.9491 215 41.8 212.851 41.8 210.2V205.4Z" fill="#FFBC42"/>
<path fill-rule="evenodd" clip-rule="evenodd" d="M119.8 146.6L41.8 205.4H119.8V146.6Z" fill="#FFBC42"/>
<path d="M197.801 205.4H119.801V215H193.001C195.652 215 197.801 212.851 197.801 210.2V205.4Z" fill="#F1C16B"/>
<path fill-rule="evenodd" clip-rule="evenodd" d="M119.8 146.6L197.801 205.4H119.8V146.6Z" fill="#F1C16B"/>
</svg>