<svg width="18" height="18" viewBox="0 0 18 18" fill="none" xmlns="http://www.w3.org/2000/svg">
<path d="M16.0312 8H10V1.96875C10 1.41875 9.55 0.96875 9 0.96875C8.45 0.96875 8 1.41875 8 1.96875V8H1.96875C1.41875 8 0.96875 8.45 0.96875 9C0.96875 9.275 1.08125 9.525 1.2625 9.70625C1.44375 9.8875 1.69375 10 1.96875 10H8V16.0312C8 16.3063 8.1125 16.5562 8.29375 16.7375C8.475 16.9187 8.725 17.0312 9 17.0312C9.55 17.0312 10 16.5813 10 16.0312V10H16.0312C16.5813 10 17.0312 9.55 17.0312 9C17.0312 8.45 16.5813 8 16.0312 8Z" fill="white"/>
</svg>
