<svg width="48" height="48" viewBox="0 0 48 48" fill="none" xmlns="http://www.w3.org/2000/svg">
<path d="M0 24.0844C0 29.7678 1.97415 35.0011 5.302 39.1652C6.82491 41.0785 8.62985 42.7104 10.6604 44.0609C10.9424 44.286 11.2808 44.4548 11.5629 44.6236C13.0294 45.524 14.5523 46.1992 16.188 46.762C16.3572 46.8182 16.5828 46.8745 16.8085 46.9308C17.3161 47.0996 17.8237 47.2121 18.3314 47.3247C18.5006 47.3809 18.7262 47.4372 18.8954 47.4372C20.5311 47.7748 22.2797 47.9999 24.0282 47.9999C24.6487 47.9999 25.2691 47.9999 25.8895 47.9437C26.0587 47.9437 26.1716 47.8874 26.3408 47.8874C28.5969 47.6623 30.7403 47.1559 32.7709 46.3681C32.9965 46.2555 33.2221 46.1992 33.3913 46.0867C34.0682 45.8053 34.8014 45.4677 35.4219 45.1301C35.5911 45.0175 35.7603 44.905 35.9295 44.8487C35.9295 44.8487 35.9859 44.8487 35.9859 44.7924C36.1551 44.6799 36.3807 44.5674 36.5499 44.4548C38.4677 43.2731 40.1598 41.8663 41.6827 40.2344C41.7391 40.1781 41.7391 40.1219 41.7955 40.1219C45.631 35.8452 48 30.218 48 24.0281C48 10.7479 37.2268 0 23.9154 0C10.604 0 0 10.8042 0 24.0844Z" fill="#BCC3FF"/>
</svg>
