<svg width="16" height="20" viewBox="0 0 16 20" fill="none" xmlns="http://www.w3.org/2000/svg">
<path d="M15.0453 0.259349C14.825 0.301537 5.57656 2.09685 5.37969 2.13435C5.18281 2.17185 5 2.3031 5 2.50935V13.764C5 13.839 4.99531 14.1015 4.8875 14.3125C4.74219 14.589 4.48906 14.7906 4.13281 14.9078C3.97813 14.9594 3.76719 15.0062 3.51875 15.0625C2.38906 15.3156 0.5 15.7468 0.5 17.4906C0.5 18.9484 1.55 19.6047 2.45469 19.7172C2.55312 19.7312 2.66563 19.75 2.7875 19.75C3.10156 19.75 4.475 19.5953 5.1875 19.1312C5.70312 18.7937 6.31719 18.1281 6.31719 16.8906V6.92966C6.31719 6.75154 6.44375 6.59685 6.61719 6.56404L13.7422 5.12497C13.9766 5.0781 14.1922 5.25622 14.1922 5.4906V11.6265C14.1922 11.8187 14.1828 12.0437 14.075 12.2547C13.9297 12.5312 13.6766 12.7328 13.3156 12.85C13.1609 12.9015 12.9031 12.9484 12.6547 13.0047C11.525 13.2578 9.63594 13.6843 9.63594 15.4281C9.63594 17.0078 10.8266 17.6406 11.5953 17.6922C11.9 17.7109 12.1203 17.7062 12.5047 17.65C12.8891 17.5937 13.6063 17.3922 14.2156 17.0406C15.0547 16.5578 15.5047 15.7843 15.5047 14.7812V0.620287C15.5 0.414037 15.3266 0.203099 15.0453 0.259349V0.259349Z" fill="#031A6E"/>
</svg>
