<svg width="10" height="14" viewBox="0 0 10 14" fill="none" xmlns="http://www.w3.org/2000/svg">
<path d="M8.96605 5.29841C8.7512 5.51755 8.39456 5.51755 8.17542 5.30271L5.55862 2.69451V12.6332C5.55862 12.9383 5.3094 13.1875 5.00003 13.1875C4.69065 13.1875 4.44144 12.9383 4.44144 12.6332V2.69451L1.82464 5.30701C1.6055 5.52185 1.25315 5.51755 1.03401 5.30271C0.819169 5.08357 0.819169 4.73552 1.03831 4.51638L4.60472 0.975757C4.65628 0.928491 4.71214 0.889819 4.78089 0.859741C4.84964 0.829663 4.92269 0.816772 4.99573 0.816772C5.14183 0.816772 5.27933 0.872632 5.38675 0.975757L8.95316 4.51638C9.17659 4.72693 9.18089 5.07927 8.96605 5.29841Z" fill="white"/>
</svg>
